<?xml version="1.0" encoding="utf-8"?>
<!-- Generator: Adobe Illustrator 25.2.3, SVG Export Plug-In . SVG Version: 6.00 Build 0)  -->
<svg version="1.2" baseProfile="tiny" xmlns="http://www.w3.org/2000/svg" xmlns:xlink="http://www.w3.org/1999/xlink" x="0px"
	 y="0px" viewBox="0 0 128 128" overflow="visible" xml:space="preserve">
<g id="Layer_1">
	<text transform="matrix(1 0 0 1.0417 1.043 -11.257)" fill="#FFFFFF" font-family="'Raleway-Bold'" font-size="57.2442px">U</text>
	<text transform="matrix(1 0 0 1.0417 45.5791 -11.257)" fill="#FFFFFF" font-family="'Raleway-Bold'" font-size="57.2442px">N</text>
	<text transform="matrix(1 0 0 1.0417 90.8584 -11.257)" fill="#FFFFFF" font-family="'Raleway-Bold'" font-size="57.2442px">I</text>
	<text transform="matrix(1 0 0 1.0417 108.833 -11.257)" fill="#FFFFFF" font-family="'Raleway-Bold'" font-size="57.2442px">W</text>
	<text transform="matrix(1 0 0 1.0417 170.7129 -11.257)" fill="#FFFFFF" font-family="'Raleway-Bold'" font-size="57.2442px">E</text>
	<text transform="matrix(1 0 0 1.0417 206.7197 -11.257)" fill="#FFFFFF" font-family="'Raleway-Bold'" font-size="57.2442px">R</text>
	<text transform="matrix(1 0 0 1.0417 246.3896 -11.257)" fill="#FFFFFF" font-family="'Raleway-Bold'" font-size="57.2442px">S</text>
	<text transform="matrix(1 0 0 1.0417 283.083 -11.257)" fill="#FFFFFF" font-family="'Raleway-Bold'" font-size="57.2442px">Y</text>
	<text transform="matrix(1 0 0 1.0417 322.4658 -11.257)" fill="#FFFFFF" font-family="'Raleway-Bold'" font-size="57.2442px">T</text>
	<text transform="matrix(1 0 0 1.0417 359.502 -11.257)" fill="#FFFFFF" font-family="'Raleway-Bold'" font-size="57.2442px">E</text>
	<text transform="matrix(1 0 0 1.0417 395.5088 -11.257)" fill="#FFFFFF" font-family="'Raleway-Bold'" font-size="57.2442px">T</text>
	<g>
		<path fill="#F29100" d="M122.87,64L122.87,64c0-16.24-6.59-30.97-17.24-41.63C94.97,11.72,80.24,5.13,64,5.13
			c-16.24,0-30.97,6.59-41.63,17.24C11.72,33.03,5.13,47.76,5.13,64c0,16.24,6.59,30.97,17.24,41.63
			c10.65,10.65,25.39,17.24,41.63,17.24c16.24,0,30.97-6.59,41.63-17.24C116.28,94.97,122.87,80.24,122.87,64 M124.97,64L124.97,64
			c0,16.83-6.83,32.09-17.86,43.11C96.09,118.13,80.83,124.97,64,124.97s-32.09-6.83-43.11-17.86C9.87,96.09,3.03,80.83,3.03,64
			c0-16.83,6.83-32.09,17.86-43.11C31.91,9.87,47.17,3.03,64,3.03s32.09,6.83,43.11,17.86C118.13,31.91,124.97,47.17,124.97,64"/>
		<path fill="#F29100" d="M106.56,64L106.56,64h0.02c-0.02-11.74-4.78-22.4-12.49-30.1C86.4,26.19,75.74,21.44,64,21.44
			s-22.4,4.76-30.1,12.46S21.44,52.26,21.44,64c0,11.74,4.76,22.4,12.46,30.1s18.36,12.46,30.1,12.46s22.4-4.76,30.1-12.46
			c7.71-7.71,12.46-18.36,12.49-30.1H106.56z M108.68,64L108.68,64c0,12.33-5.02,23.51-13.1,31.58c-8.08,8.08-19.25,13.1-31.58,13.1
			c-12.33-0.02-23.51-5.02-31.58-13.1C24.34,87.51,19.34,76.33,19.32,64c0.02-12.33,5.02-23.51,13.1-31.58
			c8.08-8.08,19.25-13.1,31.58-13.1c12.33,0.02,23.51,5.02,31.58,13.1C103.66,40.49,108.68,51.67,108.68,64"/>
		<path fill-rule="evenodd" fill="#F29100" d="M66.05,39.16c0,1.75,1.83,3.19,3.6,3.19c1.35,0,2.51-0.85,2.97-2.03l0.22,0.11
			c0,1.68,1.35,3.03,3.01,3.03c1.66,0,3.01-1.35,3.01-3.03c0-1.66-1.35-3.01-3.01-3.01c-0.55,0-1.05,0.15-1.48,0.41
			c0.5-1.16,1.64-1.94,2.99-1.94c1.27,0,2.36,0.74,2.9,1.81l-0.11-1.7l3.73-3.86L79.5,47.37H64.61H49.75l-4.39-15.24l3.62,3.86v1.7
			c0.55-1.07,1.64-1.81,2.9-1.81c1.35,0,2.49,0.79,2.99,1.94c-0.44-0.26-0.94-0.41-1.48-0.41c-1.66,0-3.01,1.35-3.01,3.01
			c0,1.68,1.35,3.03,3.01,3.03c1.66,0,3.01-1.35,3.01-3.03l0.22-0.11c0.46,1.18,1.62,2.03,2.97,2.03c1.77,0,3.54-1.44,3.54-3.19
			c0-1.42-1.05-2.55-2.44-2.55c-0.52,0-1,0.15-1.4,0.42c0.17-0.76,0.63-1.48,1.35-1.94c0.65-0.42,1.4-0.33,2.12-0.22l0.81,0.28
			l-0.44-0.68l-0.44-0.61l1.9-5.09l1.9,5.09l-0.44,0.61l-0.44,0.68l0.81-0.28c0.72-0.11,1.46-0.2,2.12,0.22
			c0.72,0.46,1.18,1.18,1.35,1.94c-0.39-0.26-0.87-0.42-1.4-0.42C67.1,36.61,66.05,37.74,66.05,39.16"/>
		<path fill-rule="evenodd" fill="#F29100" d="M78.89,91.79c3.91-3.54,6.07-8.23,6.07-13.23l0.02-25.34v-0.33h-0.33h-4.54h-0.33
			v0.33l-0.04,25.34c0,3.51-1.55,6.83-4.34,9.34c-2.86,2.6-6.7,4.02-10.81,4.02c-8.29,0-15.06-5.96-15.13-13.29h19.52l-5.13-5.15
			H49.46v-5.15h4.21l5.15-5.13h-9.37v-5.15h14.39l5.26-5.15H44.27v25.65c0,10.26,9.12,18.6,20.32,18.6
			C69.98,97.14,75.04,95.21,78.89,91.79"/>
		<path fill-rule="evenodd" fill="#F29100" d="M62.14,69.26L62.14,69.26l-3.51-3.49l3.51-3.49l9.36-9.39h7.27
			c-1.51,1.51-9.28,9.3-12.88,12.88c3.84,3.86,12.81,12.86,12.81,12.86h-7.16C70.05,77.14,64.89,72.01,62.14,69.26"/>
		<path fill-rule="evenodd" fill="#F29100" d="M58.3,84.15v-0.87c0-0.15,0-0.24-0.11-0.24c-0.11,0-0.61,0.26-0.76,0.33
			c-0.02,0-0.07,0.02-0.09,0.02c-0.02,0-0.07-0.02-0.07-0.06c0-0.04,0.04-0.09,0.07-0.09c0.04-0.02,1.31-0.85,1.55-1.03
			c0.04-0.04,0.11-0.09,0.15-0.09c0.06,0,0.09,0.07,0.09,0.13c0,0.06-0.04,0.72-0.04,1.72v1.22c0,0.66,0,1.2,0.04,1.51
			c0,0.2,0.04,0.31,0.26,0.35c0.09,0.02,0.37,0.04,0.44,0.04c0.02,0,0.06,0.02,0.06,0.07c0,0.04-0.04,0.06-0.11,0.06
			c-0.5,0-0.94-0.02-1.11-0.02c-0.15,0-0.72,0.02-1.14,0.02c-0.07,0-0.11-0.02-0.11-0.06c0-0.04,0.02-0.07,0.04-0.07
			c0.09,0,0.42-0.02,0.55-0.04c0.2-0.04,0.24-0.15,0.26-0.35c0.02-0.31,0.02-0.85,0.02-1.51V84.15z"/>
		<path fill-rule="evenodd" fill="#F29100" d="M63.98,83.93c0,1.86-1.64,3.01-2.47,3.41c-0.02,0.02-0.06,0.02-0.11,0.02
			c-0.02,0-0.07-0.04-0.07-0.07c0-0.04,0.04-0.09,0.09-0.11c0.7-0.44,1.72-1.51,1.72-3.08c0-1.18-0.5-1.7-1-1.7
			c-0.48,0-0.81,0.44-0.81,1c0,1,0.66,1.24,0.9,1.24c0.22,0,0.35-0.04,0.44-0.07c0.09-0.04,0.11-0.09,0.13-0.09
			c0.04,0,0.07,0.02,0.07,0.07c0,0.02-0.02,0.07-0.04,0.07c-0.17,0.22-0.52,0.31-0.87,0.31c-0.96,0-1.35-0.72-1.35-1.27
			c0-0.9,0.68-1.55,1.7-1.55C63.37,82.12,63.98,82.9,63.98,83.93"/>
		<path fill-rule="evenodd" fill="#F29100" d="M64.72,87.2c-0.07,0-0.11-0.04-0.11-0.09c0-0.07,0.06-0.13,0.13-0.17
			c0.94-0.83,2.25-1.86,2.25-3.25c0-1.05-0.57-1.27-0.89-1.27c-0.28,0-0.5,0.04-0.7,0.24c-0.17,0.15-0.28,0.46-0.28,0.63
			c0,0.07-0.02,0.13-0.09,0.13c-0.04,0-0.07-0.04-0.07-0.13c0-0.07-0.04-0.61-0.04-0.81c0-0.04,0.02-0.09,0.09-0.13
			c0.26-0.13,0.61-0.24,1.2-0.24c1.16,0,1.66,0.63,1.66,1.42c0,1.29-1.42,2.4-2.27,3.08c-0.04,0.02-0.02,0.04,0,0.04h0.46
			c0.11,0,0.9,0,1.14-0.04c0.46-0.04,0.68-0.26,0.76-0.59c0.02-0.07,0.04-0.09,0.09-0.09c0.04,0,0.04,0.04,0.04,0.11
			c0,0.11-0.13,0.72-0.2,0.96c-0.04,0.17-0.15,0.2-0.57,0.2H64.72z"/>
		<path fill-rule="evenodd" fill="#F29100" d="M69.15,87.2c-0.11-0.07-0.13-0.13-0.13-0.26c0-0.22,0-0.63,0.04-0.85
			c0-0.07,0.02-0.11,0.07-0.11c0.04,0,0.07,0.04,0.07,0.11c0,0.72,0.44,0.89,0.89,0.89c0.52,0,1.09-0.35,1.09-1.22
			c0-1.05-1.16-1.48-1.68-1.57c-0.06,0-0.13-0.04-0.11-0.13l0.15-1.75c0-0.07,0.04-0.09,0.11-0.09h1.64c0.18,0,0.31-0.02,0.37-0.02
			c0.07-0.02,0.11-0.02,0.13-0.02c0.04,0,0.07,0.02,0.07,0.13c0,0.13-0.02,0.42-0.09,0.83c0,0.04-0.02,0.09-0.07,0.09
			c-0.04,0-0.07-0.04-0.07-0.09c0-0.2-0.04-0.37-0.57-0.37h-1.22l-0.09,0.83c0.98,0.15,2.2,0.7,2.2,1.86c0,0.87-0.65,1.85-2.18,1.85
			C69.57,87.31,69.33,87.27,69.15,87.2"/>
		<path fill-rule="evenodd" fill="#F29100" d="M40.53,110.97c-0.79,1.35-0.92,1.59-1.07,1.9c-0.15,0.31-0.17,0.48,0.09,0.72
			c0.07,0.04,0.2,0.15,0.33,0.22c0.11,0.07,0.15,0.11,0.11,0.18c-0.04,0.06-0.11,0.04-0.24-0.04c-0.48-0.26-1.03-0.61-1.29-0.76
			c-0.2-0.13-0.79-0.44-1.09-0.61c-0.13-0.09-0.2-0.13-0.15-0.2c0.04-0.07,0.09-0.04,0.2,0c0.09,0.07,0.15,0.09,0.26,0.13
			c0.26,0.09,0.42-0.02,0.61-0.33c0.2-0.26,0.33-0.52,1.11-1.85l0.72-1.24c0.74-1.29,0.81-1.97,0.59-2.58
			c-0.22-0.57-0.61-0.83-0.89-1c-0.39-0.24-0.94-0.39-1.51-0.24c-0.76,0.2-1.27,0.98-1.79,1.9l-0.65,1.11
			c-0.79,1.33-0.92,1.59-1.07,1.88c-0.15,0.31-0.17,0.5,0.09,0.72c0.07,0.06,0.22,0.17,0.31,0.22c0.11,0.07,0.13,0.11,0.11,0.18
			c-0.04,0.06-0.11,0.04-0.24-0.02c-0.46-0.26-0.98-0.63-1-0.63c-0.11-0.07-0.68-0.35-1.03-0.55c-0.11-0.09-0.18-0.13-0.13-0.2
			c0.02-0.07,0.09-0.04,0.2,0.02c0.11,0.04,0.15,0.07,0.28,0.11c0.26,0.11,0.41-0.02,0.61-0.31c0.2-0.28,0.33-0.52,1.11-1.88
			l0.55-0.94c0.57-0.98,1.29-1.99,2.4-2.18c0.94-0.17,1.64,0.09,2.2,0.44c0.48,0.26,1.31,0.79,1.62,1.75
			c0.22,0.68,0.17,1.53-0.57,2.82L40.53,110.97z"/>
		<path fill-rule="evenodd" fill="#F29100" d="M33.68,102.57c0.5-0.61,0.59-0.92,0.48-1.09c-0.09-0.17-0.24-0.31-0.35-0.41
			c-0.09-0.07-0.13-0.13-0.09-0.17c0.06-0.07,0.13-0.02,0.24,0.09c0.5,0.44,0.79,0.72,0.94,0.85c0.07,0.07,0.46,0.37,0.85,0.72
			c0.09,0.09,0.15,0.15,0.11,0.22c-0.04,0.04-0.11,0.02-0.2-0.04c-0.09-0.09-0.24-0.2-0.37-0.26c-0.26-0.11-0.48,0.06-1.07,0.74
			l-4.1,4.48c-0.13,0.15-0.24,0.24-0.33,0.17c-0.09-0.07-0.07-0.24-0.07-0.48c0-0.2-0.07-2.47-0.2-4.58
			c-0.07-0.98-0.13-2.99-0.15-3.23l-0.04-0.04l-2.97,3.51c-0.39,0.48-0.46,0.68-0.35,0.92c0.09,0.15,0.26,0.33,0.37,0.41
			c0.09,0.09,0.11,0.13,0.07,0.17c-0.07,0.07-0.15,0-0.26-0.11c-0.39-0.35-0.74-0.7-0.92-0.83c-0.09-0.09-0.39-0.33-0.76-0.65
			c-0.11-0.09-0.17-0.15-0.11-0.22c0.02-0.04,0.11-0.02,0.2,0.04c0.06,0.06,0.13,0.13,0.24,0.17c0.28,0.13,0.48,0.02,0.87-0.39
			l4.37-4.76c0.15-0.18,0.24-0.22,0.31-0.15c0.09,0.07,0.11,0.24,0.11,0.39c0.09,0.89,0.17,2.77,0.26,4.26
			c0.11,1.57,0.11,3.3,0.13,3.56l0.02,0.02L33.68,102.57z"/>
		<path fill-rule="evenodd" fill="#F29100" d="M24.29,98.1c-1.2,0.98-1.42,1.18-1.66,1.4c-0.24,0.24-0.33,0.44-0.22,0.63
			c0.04,0.11,0.13,0.22,0.22,0.31c0.07,0.09,0.09,0.15,0.02,0.2c-0.04,0.04-0.13,0-0.22-0.13c-0.26-0.31-0.65-0.81-0.83-1.05
			c-0.18-0.2-0.57-0.63-0.83-0.94c-0.09-0.11-0.11-0.17-0.07-0.22c0.07-0.07,0.11-0.02,0.17,0.06l0.22,0.22
			c0.22,0.17,0.41,0.13,0.7-0.09c0.26-0.2,0.48-0.37,1.68-1.38l1.4-1.16c0.76-0.63,1.37-1.14,1.7-1.46c0.2-0.2,0.28-0.37,0.11-0.63
			c-0.07-0.11-0.2-0.31-0.28-0.42c-0.09-0.09-0.09-0.15-0.04-0.2c0.04-0.04,0.13,0,0.2,0.09c0.44,0.52,0.83,1.05,1,1.27
			c0.13,0.17,0.57,0.66,0.83,0.96c0.09,0.11,0.11,0.17,0.06,0.22c-0.04,0.04-0.09,0.02-0.17-0.07c-0.09-0.11-0.2-0.2-0.26-0.26
			c-0.17-0.13-0.33-0.07-0.59,0.11c-0.37,0.22-0.98,0.74-1.75,1.37L24.29,98.1z"/>
		<path fill-rule="evenodd" fill="#F29100" d="M19.54,95.5c-0.26,0.28-0.41,0.5-0.44,0.68c0,0.15,0.09,0.33,0.13,0.42
			c0.04,0.09,0.07,0.15,0,0.17c-0.07,0.04-0.11-0.02-0.2-0.13c-0.26-0.48-0.52-0.98-0.57-1.05c-0.04-0.09-0.28-0.46-0.59-0.98
			c-0.07-0.11-0.09-0.2-0.02-0.22c0.07-0.04,0.11,0.02,0.18,0.11c0.04,0.07,0.09,0.15,0.15,0.2c0.09,0.07,0.15,0.04,0.26-0.02
			c0.11-0.06,0.35-0.33,0.7-0.65c0.5-0.5,2.71-2.86,3.12-3.32l-0.02-0.02l-5.61,0.94c-0.31,0.07-0.42,0.04-0.46-0.02
			c-0.04-0.11,0.04-0.24,0.26-0.5l3.41-4.43l-0.02-0.02c-0.68,0.18-3.43,0.83-4.65,1.11c-0.24,0.04-0.44,0.13-0.57,0.2
			c-0.13,0.09-0.22,0.24-0.02,0.59c0.07,0.09,0.07,0.18,0.02,0.2c-0.07,0.04-0.13-0.02-0.22-0.15c-0.26-0.48-0.46-0.85-0.5-0.94
			c-0.02-0.07-0.28-0.44-0.44-0.72c-0.07-0.11-0.09-0.18-0.02-0.2c0.04-0.04,0.11-0.02,0.15,0.07c0.04,0.09,0.13,0.2,0.22,0.28
			c0.2,0.17,0.61,0.07,1.22-0.04c1.35-0.24,4.72-0.94,6.31-1.27c0.37-0.09,0.5-0.11,0.57,0.02c0.04,0.09-0.02,0.2-0.28,0.52
			l-3.38,4.41l0.02,0.02c0.55-0.11,4.37-0.74,5.41-0.83c0.46-0.04,0.59-0.04,0.65,0.04c0.04,0.11-0.04,0.2-0.22,0.39L19.54,95.5z"/>
		<path fill-rule="evenodd" fill="#F29100" d="M15.28,82.9c-1.46,0.52-1.75,0.61-2.05,0.74c-0.31,0.13-0.44,0.26-0.39,0.61
			c0,0.09,0.04,0.26,0.11,0.39c0.02,0.11,0.02,0.17-0.04,0.2c-0.06,0.02-0.11-0.04-0.15-0.2c-0.09-0.26-0.18-0.55-0.26-0.79
			c-0.09-0.24-0.15-0.48-0.2-0.61c-0.11-0.3-0.79-2.23-0.85-2.4c-0.09-0.17-0.18-0.33-0.22-0.41c-0.02-0.04-0.07-0.09-0.09-0.13
			c-0.02-0.04,0.02-0.07,0.07-0.09c0.06-0.02,0.2-0.02,0.65-0.15c0.11-0.02,0.52-0.15,0.65-0.18c0.04,0,0.11,0,0.13,0.07
			c0.04,0.07,0,0.11-0.09,0.13c-0.07,0.02-0.24,0.09-0.33,0.17c-0.15,0.13-0.24,0.28-0.13,0.79c0.04,0.18,0.37,1.18,0.44,1.38
			c0.02,0.07,0.07,0.07,0.13,0.04l2.45-0.85c0.07-0.04,0.11-0.06,0.09-0.11c-0.09-0.22-0.48-1.33-0.57-1.55
			c-0.11-0.22-0.18-0.35-0.31-0.41c-0.11-0.04-0.18-0.07-0.18-0.11c-0.02-0.04,0-0.07,0.04-0.09c0.07-0.02,0.24-0.04,0.74-0.18
			c0.2-0.07,0.59-0.15,0.65-0.2c0.09-0.02,0.17-0.04,0.22,0.02c0.02,0.09-0.02,0.11-0.07,0.13c-0.09,0.04-0.22,0.09-0.33,0.15
			c-0.18,0.13-0.28,0.31-0.2,0.68c0.04,0.2,0.37,1.16,0.46,1.38c0.02,0.07,0.07,0.07,0.11,0.04l0.76-0.28
			c0.33-0.11,1.22-0.41,1.51-0.52c0.65-0.24,0.74-0.46,0.41-1.44c-0.09-0.24-0.24-0.66-0.44-0.87c-0.22-0.2-0.46-0.24-0.87-0.17
			c-0.11,0.02-0.15,0-0.17-0.07c-0.04-0.06,0.04-0.09,0.13-0.13c0.24-0.09,0.92-0.24,1.13-0.26c0.26,0,0.31,0.09,0.41,0.44
			c0.26,0.74,0.44,1.27,0.57,1.7c0.13,0.41,0.22,0.72,0.33,1c0.04,0.11,0.11,0.33,0.2,0.55c0.09,0.22,0.2,0.48,0.26,0.65
			c0.04,0.13,0.02,0.22-0.04,0.24c-0.04,0.02-0.09-0.02-0.13-0.13c-0.04-0.15-0.11-0.26-0.15-0.33c-0.11-0.2-0.33-0.15-0.63-0.11
			c-0.41,0.11-1.18,0.37-2.07,0.68L15.28,82.9z"/>
		<path fill-rule="evenodd" fill="#F29100" d="M13.12,75.9c-1.55,0.28-1.81,0.33-2.14,0.41c-0.35,0.09-0.48,0.2-0.5,0.55
			c0,0.09,0.02,0.26,0.04,0.39c0.02,0.11,0.02,0.17-0.04,0.2c-0.09,0-0.11-0.07-0.13-0.22c-0.11-0.52-0.2-1.16-0.24-1.37
			c-0.07-0.35-0.24-1.11-0.28-1.42c-0.13-0.63-0.2-1.31,0.09-1.94c0.13-0.31,0.57-0.81,1.24-0.94c0.74-0.13,1.48,0.04,2.51,0.92
			c0.96-1.11,1.72-1.99,2.23-2.68c0.48-0.68,0.48-1.09,0.48-1.27c0-0.11,0-0.2-0.02-0.28c-0.02-0.09,0-0.13,0.04-0.13
			c0.09-0.02,0.13,0.04,0.15,0.18l0.17,0.96c0.11,0.57,0.11,0.81,0,1.11c-0.13,0.46-0.55,0.94-1.22,1.66
			c-0.46,0.5-1.07,1.09-1.2,1.24c-0.04,0.07-0.04,0.13-0.02,0.2l0.13,0.87c0.02,0.07,0.04,0.09,0.11,0.07l0.13-0.02
			c0.94-0.17,1.72-0.33,2.14-0.46c0.31-0.07,0.5-0.17,0.48-0.48c0-0.15-0.02-0.39-0.04-0.5c-0.02-0.09,0-0.13,0.07-0.15
			c0.07,0,0.11,0.07,0.13,0.2c0.11,0.59,0.22,1.33,0.24,1.48c0.04,0.2,0.2,0.81,0.26,1.22c0.02,0.13,0.02,0.2-0.07,0.22
			c-0.04,0-0.09-0.02-0.11-0.15c-0.02-0.15-0.07-0.26-0.11-0.35c-0.07-0.2-0.31-0.2-0.61-0.2c-0.41,0.04-1.22,0.2-2.14,0.37
			L13.12,75.9z M13.69,74.54c0.11,0,0.15-0.04,0.15-0.11c0.04-0.24,0.02-0.55-0.04-0.79c-0.06-0.42-0.13-0.52-0.31-0.68
			c-0.26-0.26-0.79-0.48-1.61-0.33c-1.42,0.28-1.66,1.31-1.55,1.9c0.04,0.24,0.09,0.41,0.13,0.52c0.04,0.07,0.09,0.07,0.17,0.07
			L13.69,74.54z"/>
		<path fill-rule="evenodd" fill="#F29100" d="M16.59,67.93c-0.07,0.17-0.13,0.22-0.35,0.22c-0.57,0.02-1.18,0-1.35,0
			c-0.15,0-0.26-0.02-0.26-0.11c0-0.09,0.09-0.11,0.17-0.11c0.13,0,0.35-0.07,0.52-0.11c0.74-0.26,0.98-0.87,0.96-1.51
			c-0.04-0.92-0.68-1.35-1.22-1.33c-0.5,0.02-0.96,0.2-1.59,1.07l-0.35,0.48c-0.83,1.18-1.53,1.59-2.36,1.64
			c-1.13,0.04-1.99-0.87-2.03-2.29c-0.04-0.68,0.04-1.09,0.11-1.38c0.02-0.09,0.04-0.13,0.11-0.15c0.13,0,0.44,0.02,1.24,0
			c0.22,0,0.31,0.02,0.31,0.11c0,0.07-0.07,0.09-0.17,0.11c-0.11,0-0.42,0.07-0.68,0.28C9.47,65,9.17,65.33,9.19,65.99
			c0.04,0.76,0.5,1.2,1.11,1.18c0.48-0.02,0.83-0.26,1.42-1.16l0.22-0.28c0.87-1.29,1.57-1.72,2.53-1.77
			c0.59-0.02,1.31,0.15,1.83,0.87c0.35,0.48,0.46,1.07,0.48,1.59C16.81,67.03,16.76,67.49,16.59,67.93"/>
		<path fill-rule="evenodd" fill="#F29100" d="M14.1,59.87c-0.55-0.04-0.79,0.04-1.09,0.13c-0.17,0.07-2.53,1.2-3.1,1.51
			c-0.41,0.22-0.7,0.46-0.83,0.63c-0.07,0.13-0.15,0.31-0.18,0.41c0,0.09-0.02,0.15-0.09,0.15c-0.07,0-0.09-0.09-0.09-0.2
			c0.02-0.2,0.13-0.96,0.15-1.29c0.02-0.22,0.04-0.63,0.09-1.09c0-0.11,0.04-0.15,0.11-0.15c0.04,0.02,0.06,0.09,0.09,0.24
			c0,0.09,0.09,0.15,0.17,0.15c0.07,0.02,0.2-0.02,0.35-0.09c0.33-0.11,2.93-1.29,3.21-1.44c-0.22-0.11-2.34-1.62-2.64-1.79
			c-0.22-0.13-0.39-0.17-0.52-0.2c-0.11,0-0.22,0.02-0.28,0.2c-0.02,0.09-0.04,0.17-0.11,0.17c-0.07-0.02-0.09-0.07-0.07-0.2
			c0.02-0.33,0.09-0.66,0.11-0.94c0.02-0.24,0.06-0.92,0.09-1.11c0-0.11,0.02-0.17,0.09-0.17c0.09,0.02,0.11,0.09,0.09,0.22
			c0,0.09,0.02,0.28,0.09,0.46c0.07,0.22,0.2,0.35,0.44,0.59c0.37,0.37,2.64,2.05,3.06,2.27c0.35,0.2,0.68,0.22,1,0.24l0.83,0.09
			c0.18,0.02,0.59,0.06,1.03,0.06c0.31,0.02,0.55-0.04,0.61-0.35c0.02-0.15,0.07-0.37,0.09-0.5c0-0.13,0.04-0.18,0.09-0.18
			c0.09,0.02,0.11,0.11,0.09,0.24c-0.07,0.63-0.15,1.27-0.18,1.55c-0.02,0.26-0.06,0.9-0.11,1.29c0,0.13-0.02,0.22-0.11,0.2
			c-0.07,0-0.09-0.04-0.07-0.15c0-0.15,0-0.28-0.02-0.37c0-0.22-0.22-0.33-0.52-0.37c-0.42-0.07-0.85-0.11-1-0.13L14.1,59.87z"/>
		<path fill-rule="evenodd" fill="#F29100" d="M10.98,51.19l-0.35,1.48c-0.13,0.57-0.13,0.83,0.04,1.03
			c0.13,0.15,0.22,0.22,0.31,0.26c0.07,0.04,0.11,0.09,0.09,0.13c-0.02,0.09-0.07,0.09-0.17,0.07c-0.17-0.04-1.03-0.46-1.09-0.5
			c-0.13-0.07-0.17-0.11-0.15-0.18c0.02-0.09,0.13-0.15,0.22-0.39c0.11-0.28,0.22-0.65,0.31-0.98l1-3.93
			c0.09-0.33,0.11-0.55,0.13-0.7c0-0.15,0-0.24,0.02-0.28c0.02-0.07,0.07-0.07,0.22-0.02c0.22,0.04,0.9,0.26,1.16,0.33
			c0.09,0.02,0.15,0.07,0.13,0.13c-0.02,0.07-0.09,0.09-0.22,0.04h-0.13c-0.26-0.07-0.61,0.13-0.85,1.03l-0.35,1.24l4.08,1.03
			c0.9,0.24,1.68,0.44,2.12,0.5c0.31,0.04,0.52,0.04,0.66-0.24c0.04-0.13,0.13-0.35,0.15-0.5c0.04-0.11,0.09-0.15,0.13-0.13
			c0.07,0,0.07,0.09,0.04,0.2c-0.17,0.65-0.35,1.29-0.44,1.55c-0.04,0.24-0.17,0.87-0.28,1.27c-0.02,0.13-0.09,0.2-0.15,0.17
			c-0.04-0.02-0.07-0.07-0.02-0.17c0.02-0.15,0.04-0.28,0.04-0.37c0-0.22-0.2-0.33-0.48-0.44c-0.39-0.15-1.18-0.35-2.1-0.59
			L10.98,51.19z"/>
		<path fill-rule="evenodd" fill="#F29100" d="M15.3,45.32c-1.44-0.61-1.7-0.72-2.01-0.83c-0.33-0.11-0.52-0.11-0.72,0.18
			c-0.04,0.06-0.11,0.22-0.17,0.35c-0.04,0.11-0.09,0.15-0.15,0.13c-0.07-0.02-0.07-0.09,0-0.24c0.11-0.26,0.24-0.52,0.33-0.76
			c0.11-0.24,0.22-0.46,0.28-0.59c0.11-0.31,0.92-2.18,0.98-2.36c0.04-0.2,0.09-0.35,0.11-0.44c0-0.04,0-0.11,0.02-0.15
			c0.02-0.07,0.07-0.04,0.11-0.02c0.07,0.02,0.15,0.11,0.59,0.33c0.09,0.04,0.5,0.24,0.59,0.31c0.04,0.02,0.11,0.07,0.07,0.13
			c-0.02,0.07-0.09,0.07-0.15,0.04c-0.07-0.04-0.24-0.09-0.37-0.09c-0.2,0-0.35,0.04-0.61,0.48c-0.09,0.15-0.52,1.13-0.59,1.33
			c-0.02,0.04,0,0.09,0.07,0.11l2.38,1c0.06,0.02,0.11,0.02,0.13-0.02c0.09-0.22,0.55-1.29,0.61-1.53c0.09-0.24,0.11-0.39,0.07-0.5
			c-0.07-0.11-0.09-0.15-0.07-0.22c0.02-0.02,0.04-0.04,0.11-0.02c0.04,0.02,0.18,0.13,0.66,0.37c0.17,0.09,0.55,0.26,0.61,0.28
			c0.09,0.04,0.17,0.09,0.15,0.17c-0.04,0.07-0.09,0.07-0.13,0.04c-0.09-0.02-0.22-0.09-0.35-0.11c-0.22-0.02-0.41,0.04-0.59,0.37
			c-0.11,0.17-0.5,1.11-0.59,1.33c-0.02,0.07,0,0.09,0.07,0.11l0.74,0.31c0.33,0.13,1.18,0.5,1.46,0.61
			c0.66,0.26,0.87,0.18,1.27-0.79c0.11-0.26,0.28-0.65,0.26-0.94c0-0.31-0.15-0.5-0.52-0.72c-0.09-0.07-0.11-0.11-0.09-0.17
			c0.02-0.07,0.11-0.04,0.2,0c0.22,0.09,0.83,0.44,1,0.57c0.22,0.17,0.17,0.26,0.02,0.61c-0.28,0.72-0.52,1.22-0.72,1.62
			c-0.18,0.41-0.31,0.7-0.44,0.98c-0.04,0.11-0.13,0.31-0.22,0.55c-0.09,0.22-0.17,0.46-0.24,0.66c-0.07,0.13-0.11,0.17-0.17,0.15
			c-0.07-0.02-0.07-0.07-0.02-0.2c0.07-0.13,0.09-0.26,0.11-0.35c0.04-0.2-0.15-0.33-0.41-0.48c-0.37-0.22-1.11-0.55-1.99-0.89
			L15.3,45.32z"/>
		<path fill-rule="evenodd" fill="#F29100" d="M17.05,36.28l-0.76,1.33c-0.28,0.5-0.37,0.74-0.26,1c0.09,0.15,0.15,0.26,0.22,0.33
			c0.06,0.07,0.09,0.11,0.04,0.15c-0.04,0.07-0.09,0.07-0.17,0c-0.15-0.09-0.85-0.74-0.92-0.79c-0.09-0.11-0.13-0.15-0.09-0.22
			c0.04-0.07,0.17-0.11,0.33-0.31c0.18-0.24,0.39-0.57,0.57-0.85l2.09-3.47c0.18-0.28,0.26-0.5,0.33-0.63
			c0.06-0.15,0.09-0.24,0.11-0.26c0.02-0.06,0.09-0.04,0.22,0.04c0.17,0.11,0.76,0.5,1,0.63c0.09,0.07,0.13,0.11,0.09,0.17
			c-0.04,0.07-0.09,0.04-0.24-0.02l-0.09-0.04c-0.24-0.13-0.63-0.04-1.11,0.74l-0.7,1.09l3.6,2.16c0.81,0.5,1.48,0.92,1.9,1.09
			c0.26,0.13,0.48,0.2,0.68-0.04c0.09-0.13,0.22-0.31,0.31-0.44c0.06-0.09,0.11-0.13,0.15-0.11c0.06,0.04,0.04,0.13-0.02,0.24
			c-0.35,0.57-0.7,1.11-0.85,1.35c-0.11,0.2-0.44,0.76-0.63,1.11c-0.07,0.13-0.13,0.17-0.2,0.13c-0.04-0.02-0.04-0.09,0.02-0.18
			c0.07-0.15,0.11-0.26,0.15-0.35c0.07-0.2-0.09-0.37-0.33-0.55c-0.35-0.26-1.05-0.68-1.86-1.18L17.05,36.28z"/>
		<path fill-rule="evenodd" fill="#F29100" d="M25.15,29.18c-1.14-1.07-1.33-1.27-1.59-1.48c-0.26-0.22-0.44-0.28-0.72-0.09
			c-0.07,0.04-0.2,0.17-0.31,0.28c-0.06,0.07-0.13,0.11-0.17,0.07c-0.07-0.07-0.02-0.13,0.09-0.24c0.2-0.2,0.39-0.41,0.57-0.59
			c0.2-0.2,0.37-0.35,0.46-0.46c0.24-0.24,1.64-1.72,1.77-1.86c0.11-0.15,0.22-0.31,0.26-0.37c0.02-0.04,0.04-0.11,0.09-0.15
			c0.02-0.02,0.06,0,0.11,0.02c0.04,0.06,0.09,0.17,0.41,0.52c0.07,0.09,0.39,0.39,0.46,0.5c0.02,0.04,0.07,0.11,0.02,0.15
			c-0.06,0.04-0.11,0.02-0.17-0.02c-0.07-0.06-0.2-0.17-0.31-0.22c-0.2-0.09-0.35-0.09-0.74,0.24c-0.13,0.11-0.9,0.87-1.05,1.03
			c-0.02,0.04-0.02,0.07,0.04,0.13l1.88,1.79c0.04,0.04,0.09,0.07,0.13,0.02c0.15-0.17,0.96-1.03,1.11-1.2
			c0.15-0.2,0.24-0.33,0.22-0.48c0-0.11-0.02-0.17,0.02-0.2c0.02-0.04,0.07-0.04,0.11,0c0.04,0.04,0.13,0.17,0.48,0.57
			c0.15,0.15,0.41,0.46,0.48,0.5c0.04,0.07,0.13,0.13,0.07,0.22c-0.04,0.04-0.09,0.02-0.13,0c-0.07-0.07-0.17-0.15-0.28-0.24
			c-0.2-0.09-0.39-0.09-0.7,0.15l-1.03,1.03c-0.02,0.04,0,0.09,0.04,0.11l0.59,0.57c0.24,0.24,0.92,0.89,1.16,1.09
			c0.52,0.48,0.74,0.46,1.46-0.31c0.17-0.17,0.48-0.5,0.57-0.76c0.09-0.28,0.02-0.52-0.22-0.87c-0.09-0.09-0.09-0.13-0.04-0.17
			c0.07-0.07,0.11,0,0.2,0.07c0.18,0.15,0.61,0.7,0.72,0.87c0.15,0.24,0.09,0.31-0.18,0.59c-0.55,0.55-0.94,0.96-1.24,1.27
			c-0.33,0.31-0.55,0.52-0.76,0.74c-0.07,0.09-0.24,0.24-0.39,0.44c-0.15,0.17-0.33,0.37-0.48,0.52c-0.09,0.11-0.15,0.13-0.22,0.09
			c-0.02-0.04-0.02-0.09,0.06-0.18c0.11-0.11,0.18-0.22,0.22-0.31c0.11-0.17-0.02-0.37-0.2-0.61c-0.28-0.33-0.87-0.87-1.55-1.53
			L25.15,29.18z"/>
		<path fill-rule="evenodd" fill="#F29100" d="M31.69,23.62l0.04-0.02c0.04-0.52,0.3-2.64,0.33-3.1c0.02-0.44,0.04-0.79-0.07-0.92
			c-0.07-0.09-0.15-0.13-0.24-0.07c-0.09,0.02-0.13,0.04-0.17,0c-0.04-0.06-0.02-0.11,0.06-0.17c0.18-0.13,0.66-0.46,0.87-0.63
			c0.24-0.2,0.68-0.57,0.92-0.74c0.09-0.06,0.15-0.11,0.2-0.04c0.04,0.07,0.02,0.11-0.07,0.17c-0.11,0.09-0.28,0.26-0.39,0.44
			c-0.17,0.31-0.33,0.68-0.41,1.29c-0.07,0.44-0.35,2.6-0.39,3.1c0.57,0.17,3.49,0.65,4.04,0.72c0.61,0.07,1.27,0.13,1.83-0.02
			c0.33-0.09,0.5-0.2,0.59-0.26c0.06-0.04,0.13-0.07,0.15-0.02c0.04,0.04,0.02,0.11-0.13,0.22l-0.7,0.55
			c-0.24,0.2-0.39,0.31-0.57,0.41c-0.48,0.31-0.83,0.31-1.42,0.26c-0.59-0.04-3.64-0.7-3.99-0.79L32,23.92l-0.04,0.04l0.57,0.72
			c0.57,0.76,1.07,1.4,1.35,1.72c0.2,0.22,0.41,0.35,0.63,0.22c0.13-0.07,0.33-0.2,0.41-0.28c0.07-0.04,0.13-0.04,0.18,0
			c0.04,0.04-0.02,0.13-0.11,0.2c-0.46,0.35-0.98,0.72-1.18,0.87c-0.2,0.13-0.68,0.57-1,0.81c-0.11,0.09-0.17,0.11-0.22,0.04
			c-0.04-0.04-0.02-0.09,0.07-0.18c0.13-0.09,0.22-0.17,0.26-0.24c0.15-0.17,0.04-0.37-0.09-0.63c-0.24-0.37-0.72-1.03-1.31-1.77
			l-1.09-1.42c-0.96-1.24-1.14-1.46-1.33-1.7c-0.24-0.28-0.39-0.35-0.72-0.2c-0.06,0.02-0.22,0.13-0.33,0.22
			c-0.09,0.07-0.15,0.09-0.2,0.02c-0.04-0.04,0-0.11,0.13-0.2c0.42-0.35,0.96-0.72,1.16-0.85c0.17-0.15,0.68-0.57,0.96-0.79
			c0.11-0.09,0.17-0.11,0.22-0.07c0.04,0.07,0,0.11-0.06,0.17c-0.07,0.04-0.11,0.11-0.2,0.2c-0.2,0.2-0.15,0.39,0.04,0.68
			c0.2,0.28,0.37,0.5,1.31,1.75L31.69,23.62z"/>
		<path fill-rule="evenodd" fill="#F29100" d="M37.13,20.17c-0.81-1.57-0.81-4.1,1.94-5.5c2.27-1.16,4.37-0.57,5.43,1.53
			c1.05,2.1,0.44,4.5-1.88,5.68C39.99,23.2,37.94,21.78,37.13,20.17 M43.39,17.2c-1.05-2.05-2.86-2.73-4.37-1.96
			c-1.05,0.52-1.94,1.72-0.79,3.99c0.96,1.9,2.77,2.88,4.54,1.99C43.42,20.89,44.73,19.82,43.39,17.2"/>
		<path fill-rule="evenodd" fill="#F29100" d="M48.7,17.59c0.24,0.76,0.44,0.98,0.65,0.98c0.2,0.02,0.37-0.02,0.55-0.07
			c0.11-0.02,0.15-0.02,0.18,0.04c0.02,0.07-0.07,0.11-0.2,0.15c-0.63,0.18-1.05,0.26-1.22,0.31c-0.09,0.02-0.55,0.17-1.07,0.33
			c-0.13,0.04-0.22,0.04-0.24-0.04c-0.02-0.07,0.04-0.09,0.13-0.11c0.13-0.04,0.31-0.11,0.44-0.17c0.24-0.15,0.2-0.46-0.04-1.31
			l-1.51-5.87c-0.07-0.2-0.07-0.35,0.02-0.37c0.11-0.04,0.24,0.07,0.46,0.2c0.15,0.09,2.1,1.29,3.93,2.34
			c0.85,0.48,2.6,1.53,2.79,1.64h0.04l-1.31-4.41c-0.17-0.61-0.33-0.76-0.59-0.81c-0.15,0-0.39,0.07-0.52,0.09
			c-0.13,0.04-0.17,0.02-0.2-0.04c-0.02-0.06,0.09-0.11,0.24-0.15c0.5-0.15,1-0.24,1.2-0.31c0.11-0.02,0.48-0.15,0.96-0.28
			c0.13-0.04,0.24-0.07,0.26,0.02c0,0.04-0.04,0.11-0.18,0.13c-0.09,0.02-0.17,0.04-0.28,0.11c-0.24,0.15-0.26,0.39-0.13,0.94
			l1.62,6.27c0.07,0.22,0.04,0.33-0.04,0.35c-0.11,0.02-0.26-0.04-0.39-0.13c-0.79-0.41-2.4-1.35-3.71-2.09
			c-1.38-0.76-2.82-1.7-3.06-1.83h-0.02L48.7,17.59z"/>
		<path fill-rule="evenodd" fill="#F29100" d="M56.67,13.03c-0.13-1.75,0.87-4.08,3.95-4.28c2.53-0.17,4.19,1.2,4.37,3.54
			c0.15,2.36-1.33,4.3-3.93,4.47C58.11,16.96,56.78,14.84,56.67,13.03 M63.59,12.77c-0.15-2.29-1.57-3.62-3.23-3.51
			c-1.18,0.09-2.49,0.83-2.31,3.38c0.15,2.12,1.44,3.73,3.41,3.6C62.14,16.18,63.78,15.74,63.59,12.77"/>
		<path fill-rule="evenodd" fill="#F29100" d="M69.11,8.93c0.07-0.15,0.13-0.24,0.22-0.24c0.09,0.02,0.13,0.09,0.22,0.37l1.92,6.11
			l3.62-5.37c0.11-0.15,0.17-0.22,0.26-0.2c0.09,0,0.13,0.11,0.13,0.33l-0.02,6.42c0,0.63,0.07,0.96,0.35,1.09
			c0.28,0.13,0.48,0.17,0.61,0.2c0.09,0,0.17,0.02,0.15,0.09c0,0.09-0.13,0.09-0.28,0.07c-0.24-0.02-1.64-0.26-2.05-0.35
			c-0.22-0.07-0.28-0.11-0.26-0.17c0-0.04,0.04-0.07,0.13-0.09c0.07,0,0.11-0.13,0.11-0.41l0.06-4.56h-0.04l-2.9,4.26
			c-0.31,0.46-0.37,0.52-0.46,0.52c-0.09-0.02-0.15-0.24-0.28-0.57c-0.17-0.5-0.74-2.16-0.81-2.47c-0.07-0.24-0.48-1.59-0.72-2.4
			l-0.04-0.02l-1.13,3.95c-0.04,0.2-0.07,0.33-0.11,0.48c-0.02,0.2,0.11,0.31,0.26,0.37c0.17,0.07,0.33,0.09,0.41,0.11
			c0.09,0.02,0.15,0.04,0.15,0.09c-0.02,0.11-0.11,0.11-0.26,0.09c-0.44-0.07-0.87-0.18-1.07-0.2c-0.17-0.02-0.68-0.07-1-0.11
			c-0.09-0.02-0.18-0.04-0.15-0.15c0-0.04,0.06-0.04,0.15-0.04c0.09,0.02,0.15,0.02,0.33,0.02c0.28-0.02,0.41-0.39,0.52-0.74
			L69.11,8.93z"/>
		<path fill-rule="evenodd" fill="#F29100" d="M79.67,14.08c0.48-1.48,0.57-1.75,0.65-2.07c0.09-0.33,0.04-0.52-0.17-0.65
			c-0.09-0.07-0.22-0.11-0.33-0.15c-0.09-0.02-0.15-0.07-0.13-0.13c0.02-0.06,0.11-0.06,0.26,0c0.37,0.11,0.98,0.33,1.27,0.44
			c0.24,0.07,0.83,0.22,1.2,0.35c0.13,0.04,0.2,0.09,0.17,0.15c-0.02,0.07-0.09,0.07-0.2,0.04c-0.09-0.04-0.17-0.04-0.28-0.07
			c-0.28-0.04-0.41,0.09-0.55,0.44c-0.13,0.31-0.22,0.57-0.7,2.05l-0.55,1.72c-0.31,0.94-0.57,1.7-0.65,2.14
			c-0.07,0.28-0.04,0.48,0.24,0.61c0.13,0.07,0.33,0.15,0.48,0.2c0.11,0.04,0.15,0.09,0.13,0.13c-0.02,0.06-0.11,0.06-0.22,0.04
			c-0.65-0.22-1.24-0.44-1.51-0.52c-0.24-0.09-0.85-0.24-1.24-0.37c-0.13-0.04-0.18-0.09-0.15-0.15c0-0.07,0.04-0.07,0.17-0.04
			c0.15,0.04,0.26,0.07,0.35,0.09c0.22,0.02,0.33-0.13,0.46-0.41c0.17-0.39,0.42-1.16,0.72-2.1L79.67,14.08z"/>
		<path fill-rule="evenodd" fill="#F29100" d="M83.16,19.36c-0.52-1.22-0.26-2.38,0.17-3.27c0.31-0.63,1-1.62,2.29-2.01
			c0.96-0.31,2.01-0.24,3.38,0.42c0.57,0.28,0.9,0.48,1.31,0.74c0.33,0.2,0.57,0.44,0.83,0.59c0.11,0.06,0.13,0.13,0.09,0.17
			c-0.02,0.09-0.11,0.17-0.28,0.5c-0.15,0.28-0.39,0.81-0.5,0.98c-0.09,0.13-0.13,0.2-0.22,0.15c-0.07-0.04-0.04-0.11,0-0.24
			c0.13-0.31,0.17-0.68,0.07-1.03c-0.15-0.48-0.76-1.07-1.62-1.48c-0.81-0.37-1.42-0.44-2.01-0.26c-0.96,0.31-1.57,1.09-1.99,1.99
			c-1.07,2.2,0.09,4.1,1.33,4.69c0.81,0.39,1.35,0.55,1.92,0.28c0.26-0.09,0.5-0.31,0.61-0.46c0.11-0.13,0.13-0.15,0.22-0.11
			c0.07,0.02,0.04,0.09,0.02,0.18c-0.07,0.11-0.57,0.85-0.81,1.13c-0.11,0.13-0.17,0.15-0.37,0.15c-0.44-0.04-1.16-0.31-1.75-0.59
			C84.6,21.28,83.67,20.5,83.16,19.36"/>
		<path fill-rule="evenodd" fill="#F29100" d="M92.88,25.36c0.85,0.61,1.33,0.63,1.64,0.48c0.17-0.09,0.33-0.2,0.44-0.31
			c0.09-0.07,0.13-0.11,0.17-0.07c0.09,0.04,0.04,0.11-0.09,0.31c-0.2,0.26-0.68,0.74-0.9,0.92c-0.13,0.11-0.24,0.13-0.39,0.04
			c-1.4-0.98-2.79-2.03-4.47-3.21c-0.09-0.06-0.13-0.13-0.09-0.2c0.04-0.04,0.09-0.07,0.31-0.15c2.47-1.03,5.04-2.03,7.4-3.01
			l-1.64-1.16c-0.42-0.31-0.96-0.63-1.33-0.68c-0.37-0.04-0.74,0.15-0.92,0.33c-0.09,0.11-0.15,0.13-0.2,0.09
			c-0.07-0.04-0.04-0.09,0.02-0.2c0.15-0.18,0.81-0.85,1.03-1.09c0.11-0.09,0.15-0.11,0.22-0.09c0.07,0.06,0.09,0.15,0.28,0.3
			c0.79,0.59,1.18,0.87,1.53,1.11l2.55,1.79c0.09,0.07,0.13,0.13,0.11,0.15c-0.04,0.06-0.11,0.09-0.2,0.13
			c-2.47,1.05-5.09,2.07-7.53,3.06L92.88,25.36z"/>
		<path fill-rule="evenodd" fill="#F29100" d="M97.35,27.96c-0.55,0.57-0.65,0.85-0.55,1.05c0.07,0.15,0.2,0.31,0.31,0.42
			c0.09,0.09,0.11,0.15,0.07,0.2c-0.04,0.04-0.13,0-0.24-0.11c-0.46-0.46-0.72-0.79-0.85-0.92c-0.07-0.07-0.44-0.39-0.81-0.76
			c-0.09-0.11-0.15-0.17-0.09-0.24c0.04-0.04,0.11-0.02,0.18,0.07c0.09,0.09,0.24,0.22,0.37,0.28c0.24,0.13,0.48-0.04,1.11-0.66
			l4.41-4.19c0.13-0.13,0.26-0.22,0.33-0.15c0.09,0.09,0.04,0.24,0.04,0.5c0,0.17-0.11,2.47-0.13,4.56c0,0.98-0.09,3.01-0.09,3.25
			l0.04,0.04l3.21-3.3c0.44-0.46,0.52-0.66,0.41-0.9c-0.07-0.15-0.24-0.33-0.33-0.44c-0.09-0.09-0.11-0.13-0.07-0.17
			c0.07-0.07,0.15,0,0.26,0.11c0.37,0.39,0.7,0.76,0.85,0.92c0.07,0.09,0.37,0.33,0.72,0.7c0.09,0.09,0.15,0.18,0.11,0.22
			c-0.04,0.04-0.11,0.02-0.2-0.07c-0.09-0.07-0.13-0.13-0.24-0.2c-0.26-0.13-0.48-0.04-0.89,0.35l-4.69,4.45
			c-0.15,0.15-0.26,0.18-0.33,0.11c-0.07-0.07-0.07-0.24-0.07-0.39c-0.02-0.9,0.02-2.77,0.02-4.28c0-1.57,0.13-3.27,0.13-3.54
			l-0.02-0.02L97.35,27.96z"/>
		<path fill-rule="evenodd" fill="#F29100" d="M105.39,35.3c0.44-0.31,0.57-0.52,0.74-0.81c0.11-0.15,1.18-2.55,1.42-3.14
			c0.17-0.44,0.24-0.79,0.22-1c0-0.15-0.04-0.33-0.13-0.44c-0.04-0.07-0.07-0.13,0-0.17c0.04-0.04,0.11,0,0.17,0.11
			c0.11,0.15,0.52,0.81,0.72,1.09c0.11,0.17,0.37,0.5,0.63,0.87c0.07,0.09,0.07,0.15,0,0.2c-0.04,0.02-0.09-0.02-0.22-0.13
			c-0.07-0.07-0.15-0.07-0.22-0.02c-0.07,0.04-0.15,0.15-0.22,0.31c-0.17,0.28-1.42,2.86-1.55,3.16c0.26-0.07,2.84-0.26,3.19-0.33
			c0.24-0.04,0.41-0.11,0.52-0.17c0.09-0.07,0.15-0.15,0.09-0.33c-0.04-0.09-0.07-0.18-0.02-0.2c0.06-0.04,0.11-0.02,0.17,0.09
			c0.2,0.28,0.35,0.57,0.52,0.81c0.13,0.2,0.52,0.72,0.63,0.89c0.07,0.09,0.09,0.15,0.04,0.2c-0.07,0.04-0.13-0.02-0.2-0.11
			c-0.07-0.09-0.2-0.22-0.35-0.31c-0.22-0.11-0.37-0.13-0.74-0.17c-0.52-0.04-3.32,0.13-3.78,0.22c-0.39,0.09-0.66,0.26-0.94,0.46
			l-0.7,0.48c-0.13,0.09-0.48,0.33-0.83,0.59c-0.24,0.2-0.37,0.39-0.22,0.68c0.04,0.13,0.15,0.33,0.24,0.44
			c0.07,0.09,0.07,0.15,0.02,0.17c-0.04,0.04-0.13,0-0.2-0.11c-0.37-0.55-0.7-1.09-0.85-1.31c-0.15-0.22-0.55-0.74-0.76-1.05
			c-0.07-0.11-0.11-0.2-0.04-0.24c0.04-0.02,0.11,0,0.18,0.09c0.06,0.11,0.15,0.2,0.24,0.26c0.13,0.15,0.37,0.11,0.63-0.04
			c0.37-0.22,0.72-0.46,0.87-0.55L105.39,35.3z"/>
		<path fill-rule="evenodd" fill="#F29100" d="M113.86,41.52c0.31-0.24,0.5-0.44,0.55-0.59c0.04-0.13,0-0.35-0.04-0.44
			c-0.02-0.09-0.04-0.15,0.04-0.17c0.07-0.02,0.11,0.04,0.15,0.17c0.17,0.5,0.33,1.05,0.37,1.13c0.02,0.09,0.22,0.5,0.41,1.07
			c0.04,0.13,0.04,0.22-0.02,0.22c-0.09,0.04-0.11-0.04-0.15-0.13c-0.02-0.09-0.07-0.17-0.13-0.22c-0.07-0.09-0.13-0.09-0.24-0.04
			c-0.13,0.04-0.41,0.26-0.81,0.52c-0.59,0.39-3.19,2.34-3.67,2.68v0.04l5.7,0.09c0.31,0,0.41,0.04,0.44,0.11
			c0.04,0.11-0.09,0.22-0.35,0.46l-4.15,3.71v0.04c0.7-0.07,3.54-0.2,4.78-0.26c0.24,0,0.46-0.04,0.59-0.09
			c0.15-0.07,0.26-0.2,0.13-0.57c-0.02-0.11-0.02-0.17,0.02-0.2c0.09-0.02,0.13,0.04,0.17,0.2c0.17,0.5,0.31,0.92,0.33,1
			c0.02,0.07,0.2,0.48,0.31,0.81c0.04,0.09,0.04,0.17,0,0.2c-0.09,0.02-0.13-0.02-0.15-0.11c-0.04-0.09-0.09-0.22-0.17-0.33
			c-0.17-0.2-0.59-0.15-1.2-0.18c-1.37,0-4.82,0.07-6.44,0.11c-0.37,0-0.5,0-0.55-0.13c-0.04-0.09,0.06-0.2,0.37-0.46l4.13-3.73
			v-0.02c-0.57,0-4.43-0.07-5.48-0.17c-0.46-0.04-0.59-0.04-0.63-0.17c-0.02-0.09,0.07-0.18,0.28-0.35L113.86,41.52z"/>
		<path fill-rule="evenodd" fill="#F29100" d="M115.95,59.55v0.04c0.42,0.33,2.03,1.7,2.4,1.99c0.35,0.26,0.63,0.46,0.81,0.46
			c0.11-0.02,0.17-0.07,0.2-0.17c0-0.09,0.02-0.13,0.09-0.13s0.09,0.04,0.11,0.15c0,0.22,0.02,0.79,0.04,1.05
			c0.02,0.33,0.09,0.9,0.11,1.18c0,0.11,0,0.17-0.09,0.17c-0.07,0.02-0.09-0.04-0.09-0.13c-0.02-0.15-0.09-0.37-0.15-0.57
			c-0.15-0.31-0.39-0.63-0.85-1.05c-0.33-0.31-1.96-1.75-2.36-2.05c-0.46,0.39-2.49,2.55-2.84,2.97c-0.39,0.48-0.81,0.96-0.98,1.53
			c-0.11,0.31-0.13,0.52-0.11,0.63c0,0.09-0.02,0.15-0.09,0.15c-0.07,0-0.11-0.04-0.11-0.24l-0.07-0.9
			c-0.02-0.31-0.04-0.48-0.02-0.68c0-0.57,0.22-0.85,0.57-1.31c0.37-0.48,2.58-2.66,2.86-2.9l0.15-0.13v-0.04l-0.94,0.07
			c-0.94,0.07-1.75,0.13-2.18,0.2c-0.28,0.02-0.5,0.13-0.52,0.39c0,0.15-0.02,0.37,0,0.5c0,0.09-0.02,0.13-0.09,0.15
			c-0.07,0-0.11-0.09-0.11-0.2c-0.04-0.57-0.04-1.22-0.07-1.48c-0.02-0.22-0.11-0.87-0.13-1.27c0-0.15,0.02-0.22,0.09-0.22
			s0.09,0.04,0.09,0.15c0.02,0.15,0.04,0.28,0.09,0.37c0.04,0.2,0.28,0.24,0.57,0.26c0.44,0.02,1.24-0.04,2.18-0.11l1.81-0.13
			c1.55-0.11,1.83-0.13,2.16-0.17c0.35-0.04,0.5-0.13,0.54-0.48c0.02-0.09,0.02-0.26,0-0.39c0-0.11,0.02-0.17,0.09-0.17
			c0.06-0.02,0.09,0.07,0.11,0.22c0.02,0.52,0.04,1.18,0.07,1.42c0.02,0.24,0.09,0.89,0.11,1.24c0.02,0.13,0,0.22-0.07,0.22
			c-0.06,0-0.11-0.07-0.11-0.13c0-0.11-0.02-0.17-0.04-0.28c-0.06-0.28-0.26-0.35-0.61-0.35c-0.33,0-0.61,0.02-2.16,0.13
			L115.95,59.55z"/>
		<path fill-rule="evenodd" fill="#F29100" d="M116.56,67.06c1.55,0.15,1.83,0.17,2.16,0.17c0.35,0.02,0.52-0.04,0.63-0.37
			c0.02-0.09,0.04-0.26,0.06-0.39c0.02-0.11,0.04-0.17,0.11-0.17c0.07,0.02,0.09,0.09,0.07,0.24c-0.04,0.55-0.13,1.18-0.15,1.4
			c-0.04,0.35-0.09,1.11-0.11,1.44c-0.07,0.63-0.2,1.31-0.63,1.83c-0.22,0.26-0.79,0.63-1.46,0.55c-0.76-0.07-1.42-0.46-2.16-1.55
			c-1.22,0.79-2.21,1.4-2.88,1.94c-0.65,0.5-0.76,0.92-0.81,1.07c-0.04,0.11-0.07,0.2-0.07,0.28c0,0.09-0.04,0.13-0.09,0.11
			c-0.09,0-0.11-0.07-0.09-0.2l0.09-0.96c0.07-0.59,0.13-0.83,0.31-1.09c0.28-0.41,0.79-0.74,1.64-1.24
			c0.59-0.35,1.33-0.74,1.51-0.87c0.07-0.04,0.09-0.11,0.09-0.18l0.11-0.87c0-0.07-0.02-0.09-0.07-0.09l-0.15-0.02
			c-0.94-0.09-1.75-0.17-2.18-0.17c-0.31,0.02-0.52,0.04-0.61,0.35c-0.02,0.15-0.07,0.37-0.09,0.5c0,0.09-0.04,0.11-0.09,0.11
			c-0.07,0-0.09-0.09-0.09-0.22c0.07-0.59,0.17-1.33,0.17-1.48c0.02-0.2,0.07-0.85,0.11-1.24c0-0.13,0.04-0.22,0.11-0.2
			c0.04,0,0.09,0.04,0.07,0.17c-0.02,0.15,0,0.26,0,0.37c0.02,0.2,0.24,0.26,0.55,0.35c0.41,0.09,1.22,0.15,2.16,0.26L116.56,67.06z
			 M115.64,68.17c-0.11,0-0.15,0-0.2,0.09c-0.09,0.2-0.15,0.5-0.17,0.76c-0.04,0.39-0.02,0.55,0.11,0.74
			c0.2,0.33,0.63,0.65,1.46,0.74c1.44,0.13,1.96-0.79,2.01-1.38c0.04-0.26,0.04-0.44,0.02-0.55c-0.02-0.07-0.04-0.09-0.13-0.11
			L115.64,68.17z"/>
		<path fill-rule="evenodd" fill="#F29100" d="M113.22,75.48c0.02-0.04,0-0.07-0.07-0.11l-1.27-0.92c-0.22-0.15-0.44-0.26-0.57-0.31
			c-0.17-0.04-0.33,0-0.41,0.33l-0.02,0.13c-0.04,0.13-0.06,0.15-0.13,0.13c-0.07-0.02-0.09-0.09-0.04-0.2
			c0.07-0.31,0.22-0.72,0.31-1.03c0.02-0.11,0.13-0.68,0.26-1.18c0.04-0.13,0.09-0.2,0.15-0.17c0.06,0.02,0.06,0.07,0.06,0.15
			c-0.04,0.09-0.06,0.22-0.06,0.31c-0.07,0.48,0.22,0.74,0.65,1.07l5.57,4.13c0.26,0.2,0.35,0.28,0.33,0.39
			c-0.02,0.09-0.13,0.13-0.39,0.17c-0.59,0.09-5.06,0.59-6.72,0.83c-1,0.15-1.22,0.39-1.31,0.59c-0.07,0.15-0.13,0.28-0.15,0.41
			c-0.02,0.07-0.04,0.13-0.11,0.11c-0.09-0.02-0.09-0.13,0.02-0.48c0.09-0.37,0.28-1.09,0.5-1.88c0.07-0.17,0.09-0.28,0.15-0.28
			c0.07,0.02,0.09,0.07,0.07,0.17c0,0.07,0.07,0.17,0.2,0.15l2.31-0.24c0.04-0.02,0.09-0.04,0.09-0.09L113.22,75.48z M113.18,77.62
			c0,0.07,0.02,0.09,0.04,0.07l2.68-0.24c0.04,0,0.11,0,0.11-0.02c0-0.02-0.04-0.07-0.06-0.09l-2.21-1.55
			c-0.04-0.02-0.07-0.02-0.09,0.02L113.18,77.62z"/>
		<path fill-rule="evenodd" fill="#F29100" d="M112.09,84.28l-0.02,0.04c0.2,0.46,1,2.44,1.2,2.86c0.2,0.39,0.35,0.7,0.5,0.79
			c0.11,0.04,0.17,0.02,0.24-0.07c0.07-0.07,0.09-0.11,0.15-0.07c0.07,0.02,0.07,0.07,0.02,0.18c-0.09,0.2-0.35,0.7-0.46,0.96
			c-0.13,0.28-0.33,0.81-0.46,1.11c-0.02,0.09-0.09,0.15-0.15,0.11c-0.06-0.02-0.06-0.07-0.02-0.17c0.07-0.13,0.13-0.37,0.15-0.59
			c0-0.33-0.04-0.74-0.26-1.31c-0.17-0.41-0.96-2.44-1.16-2.92c-0.59,0.15-3.36,1.11-3.89,1.33c-0.57,0.24-1.18,0.48-1.59,0.92
			c-0.24,0.22-0.35,0.39-0.39,0.5c-0.02,0.07-0.07,0.13-0.13,0.09c-0.07-0.02-0.07-0.09,0-0.26l0.37-0.81
			c0.11-0.28,0.2-0.46,0.28-0.63c0.28-0.5,0.59-0.65,1.14-0.92c0.55-0.24,3.51-1.16,3.89-1.22l0.17-0.04l0.02-0.04l-0.85-0.37
			c-0.87-0.39-1.62-0.7-2.03-0.85c-0.26-0.11-0.5-0.11-0.65,0.11c-0.07,0.13-0.17,0.33-0.24,0.44c-0.02,0.09-0.07,0.11-0.13,0.11
			c-0.07-0.04-0.04-0.13,0-0.22c0.22-0.55,0.5-1.11,0.61-1.35c0.09-0.22,0.33-0.81,0.48-1.2c0.07-0.11,0.13-0.17,0.2-0.13
			c0.04,0.02,0.04,0.07,0,0.17c-0.06,0.13-0.09,0.26-0.11,0.35c-0.04,0.22,0.13,0.35,0.39,0.5c0.37,0.22,1.11,0.55,1.99,0.92
			L113,83.3c1.42,0.63,1.68,0.74,1.99,0.85c0.33,0.13,0.5,0.11,0.72-0.17c0.04-0.07,0.13-0.22,0.18-0.35
			c0.04-0.09,0.09-0.15,0.15-0.11c0.07,0.02,0.07,0.09,0,0.24c-0.22,0.5-0.5,1.07-0.59,1.29c-0.11,0.24-0.35,0.83-0.48,1.16
			c-0.07,0.13-0.11,0.2-0.17,0.15c-0.07-0.02-0.04-0.09-0.02-0.15c0.04-0.11,0.07-0.15,0.09-0.28c0.06-0.26-0.07-0.42-0.39-0.59
			c-0.28-0.13-0.55-0.26-1.96-0.87L112.09,84.28z"/>
		<path fill-rule="evenodd" fill="#F29100" d="M108.97,89.93c1.44,0.98,2.64,3.23,0.89,5.76c-1.44,2.1-3.56,2.55-5.5,1.24
			c-1.92-1.33-2.53-3.73-1.05-5.89C104.97,88.62,107.46,88.91,108.97,89.93 M104.86,95.54c1.9,1.29,3.82,1,4.78-0.37
			c0.66-0.98,0.87-2.44-1.22-3.91c-1.75-1.2-3.82-1.18-4.93,0.44C103.07,92.29,102.42,93.86,104.86,95.54"/>
		<path fill-rule="evenodd" fill="#F29100" d="M104.67,100.76c0.35,0.2,0.59,0.31,0.76,0.28c0.13-0.02,0.31-0.15,0.37-0.22
			c0.06-0.07,0.13-0.09,0.17-0.04c0.04,0.07,0,0.13-0.09,0.22c-0.39,0.37-0.83,0.72-0.9,0.79s-0.39,0.39-0.83,0.81
			c-0.09,0.09-0.17,0.11-0.22,0.06c-0.04-0.04,0-0.11,0.09-0.17c0.04-0.06,0.13-0.13,0.15-0.22c0.04-0.09,0-0.15-0.07-0.24
			c-0.09-0.09-0.41-0.28-0.81-0.55c-0.59-0.37-3.41-2.01-3.93-2.29l-0.02,0.02l2.16,5.26c0.13,0.28,0.13,0.39,0.07,0.46
			c-0.07,0.07-0.22-0.02-0.55-0.15l-5.06-2.34l-0.02,0.02c0.33,0.61,1.57,3.17,2.12,4.28c0.11,0.22,0.24,0.41,0.33,0.52
			c0.11,0.11,0.28,0.15,0.57-0.11c0.09-0.09,0.15-0.11,0.2-0.07c0.04,0.07,0,0.13-0.11,0.24c-0.39,0.37-0.74,0.63-0.81,0.7
			c-0.04,0.04-0.35,0.37-0.59,0.59c-0.09,0.09-0.15,0.11-0.2,0.07c-0.04-0.04-0.04-0.11,0.04-0.17c0.07-0.07,0.17-0.18,0.22-0.28
			c0.11-0.22-0.09-0.61-0.31-1.18c-0.55-1.27-1.96-4.39-2.64-5.85c-0.15-0.35-0.2-0.48-0.11-0.57c0.07-0.07,0.2-0.02,0.57,0.15
			l5.06,2.31c-0.2-0.52-1.66-4.1-1.99-5.11c-0.13-0.44-0.2-0.54-0.09-0.63c0.06-0.06,0.17-0.02,0.41,0.11L104.67,100.76z"/>
		<path fill-rule="evenodd" fill="#F29100" d="M93.38,107.66c0.85,1.29,1.03,1.53,1.22,1.79c0.2,0.28,0.37,0.37,0.59,0.31
			c0.11-0.04,0.24-0.11,0.33-0.17c0.09-0.04,0.15-0.07,0.2,0c0.04,0.04-0.02,0.11-0.15,0.2c-0.33,0.22-0.9,0.55-1.14,0.7
			c-0.22,0.15-0.7,0.5-1.03,0.72c-0.11,0.07-0.2,0.09-0.22,0.04c-0.04-0.07-0.02-0.11,0.07-0.18c0.09-0.04,0.15-0.11,0.24-0.2
			c0.22-0.2,0.18-0.37,0-0.7c-0.15-0.28-0.31-0.52-1.16-1.83l-0.98-1.5c-0.55-0.83-1-1.51-1.27-1.86c-0.17-0.22-0.35-0.33-0.61-0.2
			c-0.13,0.07-0.35,0.17-0.48,0.26c-0.09,0.07-0.15,0.07-0.17,0.02c-0.04-0.07,0.02-0.13,0.11-0.2c0.57-0.37,1.13-0.7,1.35-0.85
			c0.2-0.13,0.72-0.5,1.07-0.72c0.11-0.09,0.2-0.09,0.22-0.04c0.04,0.04,0.02,0.09-0.09,0.18c-0.13,0.07-0.22,0.15-0.28,0.22
			c-0.15,0.15-0.11,0.33,0.02,0.59c0.2,0.39,0.63,1.07,1.18,1.9L93.38,107.66z"/>
		<path fill-rule="evenodd" fill="#F29100" d="M88.8,110.41c0.7,1.4,0.83,1.66,0.98,1.94c0.18,0.31,0.33,0.41,0.66,0.33
			c0.09-0.02,0.24-0.09,0.37-0.15c0.11-0.04,0.17-0.04,0.2,0.02c0.04,0.07-0.02,0.11-0.15,0.18c-0.26,0.13-0.52,0.24-0.76,0.35
			c-0.24,0.11-0.46,0.22-0.57,0.28c-0.31,0.13-2.14,1.05-2.31,1.13c-0.15,0.11-0.28,0.2-0.35,0.26c-0.04,0.02-0.09,0.07-0.13,0.11
			c-0.04,0.02-0.09-0.02-0.11-0.07c-0.02-0.07-0.04-0.2-0.22-0.63c-0.02-0.09-0.22-0.5-0.24-0.63c-0.02-0.04-0.02-0.11,0.04-0.15
			c0.04-0.02,0.09,0.02,0.13,0.09c0.04,0.07,0.13,0.22,0.22,0.31c0.15,0.15,0.31,0.2,0.79,0.04c0.15-0.07,1.14-0.52,1.33-0.61
			c0.04-0.02,0.04-0.07,0-0.13l-1.13-2.31c-0.04-0.06-0.07-0.11-0.11-0.09c-0.22,0.11-1.27,0.63-1.46,0.76
			c-0.22,0.11-0.35,0.22-0.37,0.35c-0.04,0.11-0.04,0.18-0.09,0.2c-0.04,0-0.09,0-0.11-0.04c-0.02-0.07-0.07-0.22-0.26-0.72
			c-0.09-0.17-0.24-0.57-0.26-0.63c-0.04-0.07-0.09-0.17,0-0.22c0.06-0.02,0.09,0,0.11,0.04c0.07,0.09,0.13,0.22,0.22,0.33
			c0.13,0.15,0.33,0.22,0.68,0.09c0.2-0.07,1.11-0.5,1.33-0.61c0.04-0.02,0.02-0.06,0-0.11l-0.35-0.74
			c-0.15-0.31-0.57-1.16-0.72-1.42c-0.33-0.61-0.55-0.68-1.46-0.22c-0.24,0.11-0.63,0.3-0.83,0.52c-0.17,0.24-0.2,0.48-0.06,0.9
			c0.02,0.11,0.02,0.15-0.04,0.17c-0.07,0.04-0.11-0.02-0.15-0.11c-0.11-0.22-0.33-0.87-0.37-1.09c-0.07-0.26,0.02-0.3,0.37-0.48
			c0.7-0.35,1.2-0.57,1.59-0.76c0.41-0.18,0.7-0.31,0.98-0.44c0.09-0.04,0.31-0.15,0.52-0.26c0.2-0.11,0.44-0.24,0.61-0.33
			c0.13-0.06,0.2-0.06,0.24,0c0.02,0.04,0,0.09-0.11,0.13c-0.15,0.07-0.24,0.15-0.33,0.2c-0.15,0.13-0.11,0.37,0,0.66
			c0.13,0.39,0.5,1.14,0.92,1.96L88.8,110.41z"/>
		<path fill-rule="evenodd" fill="#F29100" d="M67.08,115.6c0,1.7-1.4,3.08-3.08,3.08c-1.68,0-3.08-1.37-3.08-3.08
			c0-1.7,1.4-3.08,3.08-3.08C65.68,112.52,67.08,113.9,67.08,115.6"/>
	</g>
</g>
<g id="Warstwa_2">
</g>
</svg>
